# xmcd
#
# Track frame offsets:
#	150
#	16117
#	30944
#	43027
#	59583
#	75102
#	92390
#	108013
#	120830
#	138694
#	155939
#	173512
#	186832
#	203059
#	218486
#	231595
#
# Disc length: 3241 seconds
#
# Revision: 0
# Processed by: cddbd v1.5.2PL0 Copyright (c) Steve Scherf et al.
# Submitted via: EasyCDDAExtractor 5.0.5.1
#
DISCID=c00ca710
DTITLE=Various Artist -  HOTT COUNTRY # 137
DYEAR=1900
DGENRE=Country
TTITLE0=Toby Keith - Love Me If You Can
TTITLE1=Jason Blaine - ROCK IN MY BOOT
TTITLE2=Big Mike Callan  - SHAKE WHAT YOUR MAMA GAVE YOU
TTITLE3=Reba McEntire - Kelly Clarkson - Because Of You
TTITLE4=Josh Turner  - Firecracker
TTITLE5=Brad Paisley - On line
TTITLE6=Emerson Drive - Testify
TTITLE7=Michelle Wright  - RIDING AROUND THE SUN
TTITLE8=Rascal Flatts  - Take Me There
TTITLE9=Sugarland - Everyday America
TTITLE10=Pat Green  - Way Back Texas
TTITLE11=Emerson Drive - COUNTRIFIED SOUL
TTITLE12=Montgomery Gentry - WHAT DO YA THINK ABOUT THAT
TTITLE13=Shaye - So Far Gone (country radio edit)
TTITLE14=Danielle Peck - BAD FOR ME
TTITLE15=Travis Tritt - HERE'S A QUARTER
EXTD=September 2006\n
EXTT0=
EXTT1=
EXTT2=
EXTT3=
EXTT4=
EXTT5=
EXTT6=
EXTT7=
EXTT8=
EXTT9=
EXTT10=
EXTT11=
EXTT12=
EXTT13=
EXTT14=
EXTT15=
PLAYORDER=
